<svg width="219" height="56" xmlns="http://www.w3.org/2000/svg">

 <g>
  <title>Layer 1</title>
  <text style="cursor: move;" xml:space="preserve" text-anchor="start" font-family="'Space Grotesk'" font-size="24" id="svg_2" y="36.5" x="48.5" stroke-width="0" stroke="#000" fill="#000000">Wizard Finans</text>
  <path stroke="#000" id="svg_3" d="m24.09741,9.57224c-11.87423,0 -21.5,8.05867 -21.5,18c0,9.94111 9.62577,18 21.5,18c11.87438,0 21.5,-8.05889 21.5,-18c0,-9.94133 -9.62562,-18 -21.5,-18zm1.85656,27.75898l0,2.53535l-2.89644,0l0,-2.50679c-4.75299,-0.54495 -6.83583,-3.81448 -6.83583,-3.81448l2.9616,-2.07189c0,0 1.8876,2.75315 5.30476,2.75315c1.88745,0 3.3195,-0.84588 3.3195,-2.29014c0,-3.37959 -10.87131,-2.96978 -10.87131,-9.23765c0,-2.72481 2.57097,-4.68779 6.11974,-5.1508l0,-2.5351l2.89656,0l0,2.53369c2.47336,0.2726 5.40237,1.36251 5.40237,3.70678l0,1.79833l-3.84037,0l0,-0.87186c0,-0.89907 -1.3683,-1.49861 -2.89783,-1.49861c-1.95264,0 -3.38469,0.81735 -3.38469,1.96181c0,3.46019 10.87131,2.61568 10.87131,9.18334c0.00155,2.69856 -2.40675,5.04187 -6.14937,5.50487l0,0z" fill="#00ff00"/>
  <path id="svg_4" d="m13.5,27.5" opacity="NaN" stroke="#396849" fill="#fff"/>
 </g>
</svg>